<svg xmlns="http://www.w3.org/2000/svg" viewBox="0 0 180 180" role="img" aria-label="Diário Alimentar">
  <rect width="180" height="180" rx="40" fill="#2F6FED"/>
  <path d="M44 54c0-7 5-12 12-12h68c7 0 12 5 12 12v72c0 7-5 12-12 12H56c-7 0-12-5-12-12V54z" fill="#FFFFFF"/>
  <path d="M64 42v96" stroke="#E7E9EE" stroke-width="6"/>
  <path d="M77 74h40M77 94h31M77 114h36" stroke="#181B20" stroke-width="8" stroke-linecap="round"/>
  <circle cx="116" cy="64" r="18" fill="#16A34A"/>
  <path d="M109 63l5 5 11-13" fill="none" stroke="#FFFFFF" stroke-width="6" stroke-linecap="round" stroke-linejoin="round"/>
  <path d="M54 57c0-3 2-5 5-5h10v76H59c-3 0-5-2-5-5V57z" fill="#EAF1FE"/>
</svg>
